<svg xmlns="http://www.w3.org/2000/svg" enable-background="new 0 0 2000 2000" viewBox="0 0 2000 2000" id="thermometer-hot">
  <circle cx="698.68" cy="998.24" r="127.49" fill="#ffe347" transform="rotate(-14.07 698.805 998.384)"></circle>
  <path fill="none" stroke="#ffe347" stroke-miterlimit="10" stroke-width="16.126" d="M653.34 825.99l24.51-45.24c.81-1.49 2.89-1.67 3.94-.33l31.79 40.46M683.04 1175.67l31.79 40.46c1.05 1.34 3.13 1.16 3.94-.33l24.51-45.24M537.82 904.22l-15.36-51.68c-.48-1.63.86-3.22 2.55-3.02l53.53 6.43M818.07 1140.59l53.53 6.43c1.69.2 3.03-1.39 2.55-3.02l-15.36-51.68M526.02 1043.23l-45.24-24.51c-1.49-.81-1.67-2.89-.33-3.94L520.91 983M875.7 1013.53l40.46-31.79c1.34-1.05 1.16-3.13-.33-3.94l-45.24-24.51M604.25 1158.75l-51.68 15.36c-1.63.48-3.22-.86-3.02-2.55l6.43-53.53M840.63 878.5l6.43-53.53c.2-1.69-1.39-3.03-3.02-2.55l-51.68 15.36"></path>
  <path fill="#fff" stroke="#b0bed1" stroke-miterlimit="10" stroke-width="24.189" d="M996.22,1956c-192.8,0-349.62-156.85-349.62-349.62c0-106.41,47.81-205.8,131.14-272.68
		c5.57-4.48,8.83-11.22,8.83-18.36V253.65C786.57,138.07,880.61,44,996.22,44c115.58,0,209.65,94.07,209.65,209.65v1061.68
		c0,7.14,3.26,13.88,8.8,18.36c83.33,66.89,131.14,166.27,131.14,272.68C1345.81,1799.15,1188.97,1956,996.22,1956"></path>
  <circle cx="997.49" cy="1604.66" r="189.7" fill="#ec1c24"></circle>
  <line x1="997.49" x2="997.49" y1="1414.95" y2="213.32" fill="none" stroke="#ec1c24" stroke-miterlimit="10" stroke-width="24.189"></line>
  <line x1="1268.15" x2="1520.46" y1="209.75" y2="209.75" fill="none" stroke="#ec1c24" stroke-miterlimit="10" stroke-width="24.189"></line>
  <line x1="1268.15" x2="1392.28" y1="394.32" y2="394.32" fill="none" stroke="#ec1c24" stroke-miterlimit="10" stroke-width="24.189"></line>
  <line x1="1268.15" x2="1392.28" y1="578.9" y2="578.9" fill="none" stroke="#8cd9ff" stroke-miterlimit="10" stroke-width="24.189"></line>
  <line x1="1268.15" x2="1520.46" y1="763.48" y2="763.48" fill="none" stroke="#8cd9ff" stroke-miterlimit="10" stroke-width="24.189"></line>
</svg>
