<svg xmlns="http://www.w3.org/2000/svg" width="512" height="512" enable-background="new 0 0 512 512" viewBox="0 0 512 512" id="water-drop">
  <path fill="#A2DCE7" d="M472.21 326.031c0 86.14-50.831 128.444-113.54 128.444-62.7 0-113.534-42.305-113.534-128.444 0-86.141 113.534-211.02 113.534-211.02S472.21 239.891 472.21 326.031zM171.386 294.445c0 50.694-29.459 75.592-65.797 75.592-36.34 0-65.799-24.897-65.799-75.592 0-50.691 65.799-124.183 65.799-124.183S171.386 243.754 171.386 294.445zM264.568 144.115c0 35.348-20.862 52.706-46.591 52.706s-46.591-17.358-46.591-52.706 46.591-86.591 46.591-86.591S264.568 108.768 264.568 144.115z"></path>
  <path d="M472.21 326.035c0 86.14-50.83 128.439-113.54 128.439-2.52 0-5.02-.069-7.5-.21 59.21-3.26 106.04-45.55 106.04-128.229 0-72.641-80.72-172.81-106.04-202.44 4.71-5.51 7.5-8.58 7.5-8.58S472.21 239.885 472.21 326.035zM171.39 294.445c0 50.689-29.46 75.59-65.8 75.59-2.54 0-5.04-.12-7.5-.37 32.811-3.23 58.3-28.07 58.3-75.22 0-40.03-41.04-94.291-58.3-115.331 4.59-5.6 7.5-8.85 7.5-8.85S171.39 243.755 171.39 294.445zM264.57 144.115c0 35.35-20.86 52.71-46.59 52.71-2.551 0-5.061-.17-7.5-.52 22.17-3.11 39.09-20.35 39.09-52.19 0-26.36-25.91-61.57-39.09-77.76 4.489-5.52 7.5-8.83 7.5-8.83S264.57 108.765 264.57 144.115z" opacity=".05"></path>
</svg>
